<svg width="250" height="250" viewBox="0 0 250 250" fill="none" xmlns="http://www.w3.org/2000/svg">
<path d="M197.45 0H52.5496C23.5273 0 0 24.6548 0 55.0679V194.932C0 225.345 23.5273 250 52.5496 250H197.45C226.473 250 250 225.345 250 194.932V55.0679C250 24.6548 226.473 0 197.45 0Z" fill="black"/>
<path d="M201.594 104.111H193.354C191.661 104.111 190.288 105.55 190.288 107.324V144.532C190.288 153.067 185.258 158.722 177.356 158.722C168.844 158.722 164.656 154.07 164.656 144.532V107.293C164.656 106.867 164.569 106.472 164.424 106.097C163.969 104.932 162.857 104.111 161.58 104.111H153.349C153.069 104.111 152.807 104.151 152.546 104.232C152.469 104.252 152.401 104.273 152.324 104.303C151.134 104.739 150.273 105.935 150.273 107.324C150.273 109.29 149.528 111.175 148.184 112.533C146.665 114.074 144.876 115.655 142.826 117.145C142.148 117.632 141.442 118.108 140.698 118.574C137.68 93.3767 116.652 73.9869 91.5817 75.041C67.1301 76.0749 47.2052 96.8026 46.0542 122.416C44.7678 150.979 66.5595 174.636 93.5452 174.636C115.23 174.636 133.579 159.351 139.266 138.501C139.682 136.981 140.021 135.43 140.301 133.849C141.162 133.484 142.013 133.099 142.826 132.704C144.673 131.802 146.404 130.798 148.02 129.734C149.006 129.095 150.273 129.815 150.273 131.031V147.664C150.273 163.354 158.669 172.517 173.042 172.517C180.112 172.517 186.815 169.507 190.529 164.733H190.771V167.419C190.771 169.193 192.145 170.632 193.837 170.632H201.594C203.287 170.632 204.661 169.193 204.661 167.419V107.313C204.661 105.54 203.287 104.1 201.594 104.1V104.111ZM125.29 139.201C119.718 152.661 106.574 161.905 91.514 161.003C74.1425 159.959 60.0306 145.201 59.0054 126.997C58.1736 112.27 65.7953 99.2859 77.2377 92.8497C78.2339 92.2922 79.4139 93.1132 79.3656 94.2889C78.9884 103.796 81.861 113.577 87.8192 121.301C96.737 132.876 108.808 136.353 117.823 137.153C119.467 137.305 121.024 137.366 122.436 137.366C123.007 137.366 123.558 137.366 124.081 137.336C124.999 137.305 125.648 138.289 125.29 139.17C125.29 139.17 125.29 139.18 125.29 139.191V139.201ZM125.996 123.642C124.651 123.764 122.814 123.855 120.666 123.764C114.031 123.47 104.514 121.362 97.8977 112.787C92.8971 106.3 91.1755 97.3905 93.0325 89.7076C93.197 89.0285 93.8063 88.5622 94.4641 88.5825C96.7564 88.6433 98.981 88.9474 101.148 89.4542C115.762 92.9003 126.895 106.077 128.027 122.122C128.075 122.842 127.563 123.46 126.876 123.541C126.586 123.581 126.286 123.612 125.986 123.632L125.996 123.642Z" fill="white"/>
</svg>
